# 3ds Max Wavefront OBJ Exporter v0.97b - (c)2007 guruware
# File Created: 28.11.2017 00:39:44

#
# object Right_Side_Plane_Trees_112
#

v  -192.3041 4.9261 60.1688
v  -380.3464 4.9262 36.5683
v  -380.3464 199.3259 36.5683
v  -286.3253 261.6214 48.3686
v  -192.3041 393.7256 60.1689
v  4.2296 393.7256 44.2190
v  4.2296 4.9262 44.2188
v  174.8461 393.7256 124.8171
v  174.8461 258.9250 124.8171
v  174.8461 4.9262 124.8170
v  371.8229 4.9261 130.9704
v  371.8229 199.3259 130.9705
v  -286.3253 393.7256 48.3687
# 13 vertices

vn 0.0219 0.0000 -0.9998
vn 0.1245 0.0000 -0.9922
vn 0.1792 0.0000 -0.9838
vn 0.4271 0.0000 -0.9042
vn 0.3182 0.0000 -0.9480
vn 0.2341 0.0000 -0.9722
vn 0.0312 0.0000 -0.9995
# 7 vertex normals

vt 0.4630 0.3993 0.0000
vt 0.3635 0.3990 0.0000
vt 0.3627 0.4898 0.0000
vt 0.4126 0.5192 0.0000
vt 0.4624 0.5812 0.0000
vt 0.5570 0.5810 0.0000
vt 0.5568 0.3990 0.0000
vt 0.6459 0.5807 0.0000
vt 0.6461 0.5176 0.0000
vt 0.6465 0.3988 0.0000
vt 0.7512 0.3994 0.0000
vt 0.7505 0.4902 0.0000
vt 0.4122 0.5809 0.0000
# 13 texture coords

g Right_Side_Plane_Trees_112
s 1
f 1/1/1 2/2/2 3/3/2 4/4/2 
f 1/1/1 5/5/1 6/6/3 7/7/3 
f 7/7/3 6/6/3 8/8/4 9/9/5 
f 7/7/3 9/9/5 10/10/6 
f 11/11/7 10/10/6 9/9/5 12/12/7 
f 5/5/1 4/4/2 13/13/2 
f 1/1/1 4/4/2 5/5/1 
# 4 polygons - 3 triangles

#
# object Left_Side_Plane_Trees_113
#

v  399.5181 -30.0821 -47.0318
v  210.1271 -30.4079 -53.9454
v  209.4892 358.3901 -54.7952
v  398.8803 358.7160 -47.8817
v  18.7085 -30.8254 -101.2597
v  18.0706 357.9727 -102.1095
v  -162.6395 -31.0089 -49.1167
v  -163.2773 357.7891 -49.9665
v  -358.0462 -31.3854 -74.6859
v  -358.6840 357.4127 -75.5357
# 10 vertices

vn 0.0365 -0.0021 -0.9993
vn 0.1390 -0.0019 -0.9903
vn -0.0188 -0.0022 -0.9998
vn -0.0749 -0.0023 -0.9972
vn 0.1297 -0.0020 -0.9915
# 5 vertex normals

vt 0.5292 0.0062 0.0000
vt 0.6456 0.0066 0.0000
vt 0.6448 0.1817 0.0000
vt 0.5274 0.1811 0.0000
vt 0.7552 0.0063 0.0000
vt 0.7555 0.1815 0.0000
vt 0.8601 0.0061 0.0000
vt 0.8594 0.1812 0.0000
vt 0.9826 0.0067 0.0000
vt 0.9809 0.1815 0.0000
# 10 texture coords

g Left_Side_Plane_Trees_113
s 1
f 14/14/8 15/15/9 16/16/9 17/17/8 
f 15/15/9 18/18/10 19/19/10 16/16/9 
f 18/18/10 20/20/11 21/21/11 19/19/10 
f 20/20/11 22/22/12 23/23/12 21/21/11 
# 4 polygons

#
# object Right_Side_Plane_Trees_113
#

v  -377.8268 184.3378 6.2841
v  -188.3223 183.4258 4.2585
v  -189.2605 -10.9715 3.9997
v  -378.7650 -10.0596 6.0253
v  -187.3841 377.8232 4.5174
v  5.1898 376.9502 -37.8434
v  3.3133 -11.8445 -38.3611
v  185.1300 363.5177 18.9605
v  183.2536 -25.2769 18.4428
v  295.1915 349.3314 29.4646
v  293.3151 -39.4633 28.9469
# 11 vertices

vn -0.0107 0.0014 -0.9999
vn -0.1134 0.0019 -0.9936
vn -0.1482 0.0020 -0.9890
vn 0.0389 0.0011 -0.9992
vn 0.0501 0.0011 -0.9987
vn 0.2055 0.0003 -0.9787
vn 0.1931 0.0004 -0.9812
vn 0.0951 0.0009 -0.9955
# 8 vertex normals

vt 0.6435 0.7704 0.0000
vt 0.7426 0.7723 0.0000
vt 0.7447 0.6818 0.0000
vt 0.6461 0.6803 0.0000
vt 0.7404 0.8627 0.0000
vt 0.8338 0.8645 0.0000
vt 0.8385 0.6835 0.0000
vt 0.9217 0.8612 0.0000
vt 0.9286 0.6803 0.0000
vt 0.9786 0.8570 0.0000
vt 0.9871 0.6760 0.0000
# 11 texture coords

g Right_Side_Plane_Trees_113
s 1
f 24/24/13 25/25/14 26/26/14 27/27/13 
f 28/28/15 29/29/16 30/30/17 25/25/14 
f 26/26/14 25/25/14 30/30/17 
f 30/30/17 29/29/16 31/31/18 32/32/19 
f 32/32/19 31/31/18 33/33/20 34/34/20 
f 24/24/13 28/28/15 25/25/14 
# 4 polygons - 2 triangles

